<svg xmlns="http://www.w3.org/2000/svg" xmlns:xlink="http://www.w3.org/1999/xlink" viewBox="0 0 806.03 256.77"><defs><style>.cls-1{isolation:isolate;}.cls-2,.cls-9{fill:#49871f;}.cls-18,.cls-20,.cls-3{fill:#4a8020;}.cls-13,.cls-17,.cls-3,.cls-4{opacity:0.4;}.cls-11,.cls-29,.cls-3,.cls-4,.cls-6,.cls-8,.cls-9{mix-blend-mode:multiply;}.cls-4{fill:#3a651a;}.cls-5{fill:#8eb803;}.cls-6{fill:#207026;}.cls-10,.cls-18,.cls-21,.cls-23,.cls-6,.cls-8,.cls-9{opacity:0.3;}.cls-7{fill:#513205;}.cls-10{fill:#bac800;}.cls-11,.cls-17,.cls-23{fill:#a2bf00;}.cls-12{fill:#c8ce00;}.cls-14,.cls-15{fill:#88b400;}.cls-14,.cls-18,.cls-19,.cls-21{mix-blend-mode:screen;}.cls-16{fill:#d5d200;}.cls-19{fill:#75ae0f;opacity:0.5;}.cls-22{fill:#6f4510;}.cls-24,.cls-25,.cls-33,.cls-34{fill:#fff;}.cls-24,.cls-26{stroke:#000;stroke-miterlimit:10;stroke-width:2px;}.cls-26{fill:none;}.cls-27{fill:#662d91;}.cls-28{fill:#331a0b;}.cls-29{fill:#2b1307;opacity:0.6;}.cls-30{fill:url(#linear-gradient);}.cls-31{fill:url(#linear-gradient-2);}.cls-32{fill:url(#linear-gradient-3);}.cls-33{font-size:58.84px;}.cls-33,.cls-34{font-family:InaiMathi, InaiMathi;}.cls-34{font-size:120.68px;}</style><linearGradient id="linear-gradient" x1="222.11" y1="159.63" x2="198.62" y2="297.36" gradientTransform="translate(-51.64 12.23) rotate(4.28)" gradientUnits="userSpaceOnUse"><stop offset="0" stop-color="#fff507"/><stop offset="0.15" stop-color="#ffd20a"/><stop offset="1" stop-color="#fc1018"/></linearGradient><linearGradient id="linear-gradient-2" x1="221.55" y1="185.3" x2="202.6" y2="293.9" gradientTransform="translate(-51.64 12.23) rotate(4.28)" gradientUnits="userSpaceOnUse"><stop offset="0" stop-color="#ffe004"/><stop offset="0.08" stop-color="#fdcf05"/><stop offset="1" stop-color="#e60d14"/></linearGradient><linearGradient id="linear-gradient-3" x1="222.65" y1="197.68" x2="194.72" y2="328.17" xlink:href="#linear-gradient-2"/></defs><title>logo02</title><g class="cls-1"><g id="Layer_6" data-name="Layer 6"><path class="cls-2" d="M93.23,143.64a3.67,3.67,0,0,1,5.17-2.46,4.24,4.24,0,0,1,2.74,5.53c3.17-.78,5.29,1.28,4.5,3.23,2.75-3,14.76-2.34,12.4,13,1-.52,1.6,1.1,1.6,1.1,3.06-3,11.76,0,7.78,6.17,0,0,7.39,2.09,3.23,6.83,0,0,3.56,3.44,1.32,7.58s-5.78,2.09-5.78,2.09S130,197,119.61,196c-.17,3.56-5.77,3.65-5.77,3.65s.18,8.26-5.14,8.69c-1.4,5.16-11.28,8.26-14.31,2.53-1.25,1.91-3.65-.65-3.65-.65-.09,2.64-4.39,3.94-8.24.47-2.81,6.87-20.26,8.19-16.37-7-3.64.9-5.42-1.6-4.48-3.38-2.53,2.26-6.08-1.19-2.31-5.19-8.49,3.24-14.39-6.64-12.91-10.85S54.65,179,54.65,179s-7.75-6.49.93-11.57c-3.15-4.49-1.64-15.69,12.55-11.87a3.19,3.19,0,0,1,1.72-1.85c-3.54-1.89,1.61-10.58,9.73-4.83C81,139.22,90.07,137.6,93.23,143.64Z" transform="translate(-16.97 -26.28)"/><path class="cls-3" d="M59.34,195.14c-3.77,4-.22,7.45,2.31,5.19-.94,1.78.84,4.28,4.48,3.38-3.89,15.17,13.56,13.85,16.37,7,3.85,3.47,8.15,2.17,8.24-.47,0,0,2.4,2.56,3.65.65,3,5.73,12.91,2.63,14.31-2.53,5.32-.43,5.14-8.69,5.14-8.69s5.6-.09,5.77-3.65c10.43,1,6.58-9.32,6.58-9.32s3.53,2,5.78-2.09-1.32-7.58-1.32-7.58c4.16-4.74-3.23-6.83-3.23-6.83,4-6.16-4.72-9.16-7.78-6.17,0,0-.62-1.62-1.6-1.1,2.36-15.31-9.65-16-12.4-13,.79-1.95-1.33-4-4.5-3.23a4.24,4.24,0,0,0-2.74-5.53,3.67,3.67,0,0,0-5.17,2.46c-3.16-6-12.28-4.42-13.65,5.25-8.12-5.75-13.27,2.94-9.73,4.83a3.19,3.19,0,0,0-1.72,1.85c-14.19-3.82-15.7,7.38-12.55,11.87-8.68,5.08-.93,11.57-.93,11.57s-6.74,1.07-8.22,5.28S50.85,198.38,59.34,195.14Zm-2.16-16.09c.2-3.69,4.2-3.12,7.1-1.88-2-2.76-3-6.72,1.29-7.68a7,7,0,0,1,4.43.7,3,3,0,0,1,1.73-1.47c1.35-.46,2.76.29,3.91,1.2-1.59-3.77-3-9.19.88-11.47a5.23,5.23,0,0,1,6.53,1.25,6.93,6.93,0,0,1,.44,6.58c1.89.37,2.5,2.16,2.44,4a3.84,3.84,0,0,1,5.72.2,4.94,4.94,0,0,1,1.09,2.12,3,3,0,0,1,1.1-.1c2.6.24,4.42,2,5.65,4.19,1.53-1.71,3.61-1.41,5.2.06.3-2.13,3.28-1.91,5-.27-.24-6.18,11.8,1.38,8.51,4.24,3.4.86,6.63,4.61,3.17,7.46-2.26,1.86-6.08-.5-8.34-2.79,0,1.45-1,2.62-3,2.1-1.79-.46-3-2.53-3.51-4.5-1.2,1-3.81-.23-5.46-1.58.68,4.61-6.39,5.2-10.65,3.49.92,1.84.81,4.11-.76,4.78.63,2,.29,4.06-1.63,4.57,1.8,1.69.83,5.41-1.53,6.78-3.54,2-7.33-1.2-7.9-4.75a2.27,2.27,0,0,1-2.66,0c-1.46-.88-1.71-3.11-1.61-4.88a1.65,1.65,0,0,1-.73.19c-1.77,2.79-4.72,3-7.14.45-1.4-1.44-1.9-3.57-.74-4.72C61.43,186.63,57,183.47,57.18,179.05Z" transform="translate(-16.97 -26.28)"/><path class="cls-4" d="M46.43,184.29c1.29-3.67,6.58-4.95,7.91-5.22l.22.11c-1.39.78-2.78,1.71-3.08,3.29a7.4,7.4,0,0,0,1,5.6c2.21,3.2,6.36,5.31,10.05,3.31a5.29,5.29,0,0,0-.4,4,2,2,0,0,0,2.18,1.57,3.42,3.42,0,0,0,1.6,3.71,3,3,0,0,0,2.63.4c-.14,2.34.46,4.71,2.3,5.95a4.34,4.34,0,0,0,6.06-2.12,6.88,6.88,0,0,0,1.8,1c1.92.66,4.3-.38,4.41-1.92,2.73,2,7,3.45,8.91-.14a6.68,6.68,0,0,0,.45-5,3.47,3.47,0,0,0,2.21-.85c1.59,2.67,4.56,5.12,7.4,4.09a4.3,4.3,0,0,0,2.94-3.4h0a3.7,3.7,0,0,0,3.89-2.38,3.78,3.78,0,0,0,0-2.33c2,1.69,4.53,2.41,6.91.5a5.31,5.31,0,0,0,1.34-1.56,6.06,6.06,0,0,0,2.51,1c2.59.4,2.85-1.93,1.93-3.54,2.9-.23,4.37-2.06,3.78-4.62a11.53,11.53,0,0,0,2.85,1.51,4.54,4.54,0,0,1-2.07-.5S130,197,119.61,196c-.17,3.56-5.77,3.65-5.77,3.65s.18,8.26-5.14,8.69c-1.4,5.16-11.28,8.26-14.31,2.53-1.25,1.91-3.65-.65-3.65-.65-.09,2.64-4.39,3.94-8.24.47-2.81,6.87-20.26,8.19-16.37-7-3.64.9-5.42-1.6-4.48-3.38-2.53,2.26-6.08-1.19-2.31-5.19C50.85,198.38,45,188.5,46.43,184.29Z" transform="translate(-16.97 -26.28)"/><path class="cls-4" d="M130.44,182.07c-.68-.71-2.56-1.33-3.35-.75a4.66,4.66,0,0,0-4.48-1.75c2-5.56-10.56-11.85-14.56-5.57a3.83,3.83,0,0,0-.68-.21,4.84,4.84,0,0,0-4.41,1.06c-1.56-1.41-4.35-2.07-6.8-2A11.34,11.34,0,0,0,93.22,168a5.91,5.91,0,0,0-5.64-1.72,8.61,8.61,0,0,0-2.38-9.72,7.44,7.44,0,0,0-3.64-1.92c-1.54-2.79-5.23-4.78-7.88-2.83-2.26,1.64-2.12,4.61-1,7.27a7.2,7.2,0,0,0-3.21-.39c-2.7.39-3.55,2.21-3.41,4.41-2-2.63-4.79-4.76-8.26-4.56a6.53,6.53,0,0,0-2.93.82c1.44-3.42,5.4-5.91,13.26-3.79a3.19,3.19,0,0,1,1.72-1.85c-3.54-1.89,1.61-10.58,9.73-4.83,1.37-9.67,10.49-11.29,13.65-5.25a3.67,3.67,0,0,1,5.17-2.46,4.24,4.24,0,0,1,2.74,5.53c3.17-.78,5.29,1.28,4.5,3.23,2.75-3,14.76-2.34,12.4,13,1-.52,1.6,1.1,1.6,1.1,3.06-3,11.76,0,7.78,6.17,0,0,7.39,2.09,3.23,6.83,0,0,3.56,3.44,1.32,7.58-.15.26-.3.49-.45.71A3.93,3.93,0,0,0,130.44,182.07Z" transform="translate(-16.97 -26.28)"/><path class="cls-5" d="M173.65,186.9S159,182.77,168.21,172c-1.29-3.63,4.77-7.29,7.82-5.74-5.38-4.3-4.41-15.75,5.46-15.55,0,0-5-16.13,14.6-14.14-2.79-8.56,9.32-12.33,14.47-5.16,3.41-6.45,12.33-2.48,12.82,3,3.61-8.65,21.82-5.18,18.65,9.61,5.95-2.38,7.44,2.56,6.88,5.39,5.71-3.35,14.1,7,5.48,14.57,6.45,2.8,4,12.52-.76,12.75,4.93,5.87-.86,6.33-2.5,6.83,3.57,7-.09,12.49-5.26,9.49,1.62,7.18-7.89,2.85-7.89,2.85,1.46,9.09-12.2,15.94-16.33,8.22-1.25,7.26-7.61,3.19-7.61,3.19-.45,5.4-13.77,4.58-13.83-2.47-5,6.62-15.78-2-14.13-6.34C180.16,200.6,172.64,195.14,173.65,186.9Z" transform="translate(-16.97 -26.28)"/><path class="cls-3" d="M173.65,186.9c-1,8.24,6.51,13.7,12.43,11.63-1.65,4.35,9.11,13,14.13,6.34.06,7,13.38,7.87,13.83,2.47,0,0,6.36,4.07,7.61-3.19,4.13,7.72,17.79.87,16.33-8.22,0,0,9.51,4.33,7.89-2.85,5.17,3,8.83-2.45,5.26-9.49,1.64-.5,7.43-1,2.5-6.83,4.8-.23,7.21-9.95.76-12.75,8.62-7.59.23-17.92-5.48-14.57.56-2.83-.93-7.77-6.88-5.39,3.17-14.79-15-18.26-18.65-9.61-.49-5.49-9.41-9.46-12.82-3-5.15-7.17-17.26-3.4-14.47,5.16-19.62-2-14.6,14.14-14.6,14.14-9.87-.2-10.84,11.25-5.46,15.55-3.05-1.55-9.11,2.11-7.82,5.74C159,182.77,173.65,186.9,173.65,186.9Zm79.66-11.85c-1.64,0-3.41-1.7-2.88-3.39a2.33,2.33,0,0,1,1.57-1.51,2.44,2.44,0,0,1,2.39.77.68.68,0,0,1,.14.22,2.69,2.69,0,0,1,.66,1.5A2,2,0,0,1,253.31,175.05Zm-6.52,10a.52.52,0,0,1,.33.18,4.25,4.25,0,0,1,3.32,2.7c.68,2-1.4,3.47-3.17,3a5.09,5.09,0,0,1-3.37-3.34C243.31,185.64,245.15,185,246.79,185.07Zm-8.49,2.43a1,1,0,0,1,.53-.29c-.16-.28-.12-.67.31-.63.83.09,1.8.34,2,1.3a1.89,1.89,0,0,1-.16.81l-.12.3a.81.81,0,0,0,0,.16c.17.37-.17.83-.56.47s-1.28-.66-1.81-1.18A.7.7,0,0,1,238.3,187.5ZM234.41,170a2.66,2.66,0,0,1-2.94-1.41,6.89,6.89,0,0,1-3.32,1.06c-2.19.05-3.29-2.36-3.13-4.39-1.62.47-3.71-1.07-4.58-2.64a5.41,5.41,0,0,1-.75-3.12l-.34-.11a6.1,6.1,0,0,1-4.13-4.15,2.07,2.07,0,0,1,0-.84,11.12,11.12,0,0,1-6.92-2.72c-2.38-2.36-.71-4.44,1.6-4.79-1.09-1.28-1.49-3.15-.21-4.36a5.52,5.52,0,0,1,5.41-1.15,6.44,6.44,0,0,1,.49-4.23c1.06-1.74,3.3-1.67,4.77-.61s1.56,3.31,1.3,5.25a3.09,3.09,0,0,1,3.3-.08c-1-2.58-1.1-6.08,1.37-7.45a3.51,3.51,0,0,1,3.47.1c.51-4.19,7.46-1.44,6.62,2,1,.34,1.84,2.16,1.41,3.58,1.67.06,2.37,1.63,2.63,3.51a4.65,4.65,0,0,1-.07,1.68,4.88,4.88,0,0,1,3.84,1.3,3.71,3.71,0,0,1,1.14,3.1,4.78,4.78,0,0,1,1.66,4.15c2.1-1.16,4.64-1.65,6,.88a4.49,4.49,0,0,1-3.27,6.67c.19,1.36.19,2.63-.67,3.43,1.74.38,3.51,1.36,3.12,3.35-.31,1.6-1.92,2.08-3.42,1.94a2.25,2.25,0,0,1-1.41,2.84,2.39,2.39,0,0,1,.3,1.38c3.21.26,5.76,4.34,1.56,5.64-3.75,1.16-7.57-3-8.21-6.62-1.1.89-2.75.6-4-.23a4,4,0,0,1-1.76-3.32A4,4,0,0,1,234.41,170Zm-35.85,16.7a1.8,1.8,0,0,1,2-1.48c-1.9-1.73-2.81-4.24-.66-6.58s5.13-2.34,6.9-.09c.63-2.81,3-4.07,6.1-3.48,3.53.69,5.09,3.37,5.92,6.4,1.46-4.17,5.91-1.41,7.43,1.6,3.67.54,5.89,5.51,4.16,7.66,4.09,1.07,5.45,8.08,0,9-2.66.48-5.2-.95-7.14-3.08a6.13,6.13,0,0,1-2.61,2.89c-2.58,1.48-4.48-.33-5.42-2.52-1.24,3.44-5.85,1.62-8.17-1a9.8,9.8,0,0,1-2.1-3.59,11.3,11.3,0,0,1-5.23-2A3.56,3.56,0,0,1,198.56,186.72Z" transform="translate(-16.97 -26.28)"/><path class="cls-3" d="M217.16,130.61c-1.33,2.45-3.5,3.61-6.2,2.44-.62-.27-.6.57-.16.82,3,1.74-1.69,4-3.2,4.52-2.13.67-4.61,1.08-6.64-.08-.63-.27-.62.57-.18.81,5.06,2.24,3.64,8.35-.25,11-.36.26.1.75.35.82,2,.63,4.68,1.76,5.13,4.1a4.39,4.39,0,0,1-1.38,4c-3.56,3.11-6.25-1-7.1-4.32-.12-.44-.83-.63-.85-.06-.26,4.23-5.61,2.65-8,1.43-3.86-2-6.21-5.55-7.74-9.47a8.66,8.66,0,0,1,2-2.26c.41-.3-.24-1.06-.66-.75a6.78,6.78,0,0,0-1.23,1.18c.57-4.37,3.63-9.35,15.06-8.19-2.79-8.56,9.32-12.33,14.47-5.16a6,6,0,0,1,7.38-3A8.42,8.42,0,0,1,217.16,130.61Z" transform="translate(-16.97 -26.28)"/><path class="cls-6" d="M168.21,172c-1.29-3.63,4.77-7.29,7.82-5.74-4.64-3.71-4.55-12.73,1.89-15-1.2,4.8-.36,9.78,4.91,9.31-.87,2.61-.31,6.81,2.94,7.12,3.51.33,5-3.19,5.67-6.34a4.63,4.63,0,0,0,8,1c.85,2.49,3.12,3.75,5.76,4a7.94,7.94,0,0,0-.21,5.07c-2.72-.45-6.32-.33-8.7,1s-1.67,3.24-.24,4.83c-2.13,0-4.84.64-5.64,2.74a3.74,3.74,0,0,0,1.22,4.25c-2.15.08-4.05,1.27-3.65,3.82a2.68,2.68,0,0,0,3.17,2.32c-2.32,4.49,2.54,10.06,6.44,6.17a9.59,9.59,0,0,0,4.93,6.37c2.5,1.17,4.28.22,5-2,1.11,2.13,3.16,3.93,5.65,3.91,2.23,0,2.83-1.47,2.31-3.1,2.18,1.07,4.1.82,6.41-.3.94,2.54,4.17,5.08,5.42,2.06a9.23,9.23,0,0,0,4.3,3c-3.69,1.72-8,1.43-10-2.33-1.25,7.26-7.61,3.19-7.61,3.19-.45,5.4-13.77,4.58-13.83-2.47-5,6.62-15.78-2-14.13-6.34-5.92,2.07-13.44-3.39-12.43-11.63C173.65,186.9,159,182.77,168.21,172Z" transform="translate(-16.97 -26.28)"/><path class="cls-6" d="M168.21,172c-1.29-3.63,4.77-7.29,7.82-5.74-4.64-3.71-4.55-12.73,1.89-15-1.2,4.8-.36,9.78,4.91,9.31-.87,2.61-.31,6.81,2.94,7.12,3.51.33,5-3.19,5.67-6.34a5,5,0,0,0,1.42,1.83,9.43,9.43,0,0,0-.69,9.89c-3.6-1.78-10.69-2.86-9.28,1.53-3.59-2.09-8.46-.46-8,4.47.28,3.33,3.79,4.07,6.82,3.63a7.22,7.22,0,0,0-1.64,8.38c1.39,2.95,3.94,3.5,6,1.66a7.25,7.25,0,0,0,2.87,6c1.16.74,2,.61,2.45-.08,1.05,3.81,3.63,7.39,7.66,7.49-5.37,4.07-14.41-3.58-12.89-7.59-5.92,2.07-13.44-3.39-12.43-11.63C173.65,186.9,159,182.77,168.21,172Z" transform="translate(-16.97 -26.28)"/><path class="cls-7" d="M105.89,160.58a29.37,29.37,0,0,0,10.69,15.59c8.86,6.86,15.06,13.48,16,12s.43-9.91,1.07-17.13c.89-9.9-.8-18.34-4.93-28.71S123.8,126.49,117,118.13c1.91-2.61,1.43-4,1.43-4s5.13,8.14,6.5,8-1.39-9.43-1.39-9.43l4-2s.89,14.08,3.19,23,11.19,30.08,13.54,30.31.47-18.86,0-26.67-2.09-12.72-3.47-15-4.17-8.53-4.17-8.53,3.42.77,5.6-.58c4.85,10.12,6.33,23.16,6.62,31.41.46,13.5,1,16.79,2.78,16.27s3.46-6.39,4.26-9.62,4-9.36,4.9-13,.49-5.94-3.65-13.77-3.86-10.23-3.86-10.23a9.59,9.59,0,0,0,5.52,1.08s1.68,8.28,3.71,10.78,1.17,10.83,3.67,7.65,6.43-8.26,8.83-13.29,3.06-5.76,3.06-5.76l4.52-1.72s-.57,1.22-.12,1.66c-3.91,6-8.31,13.79-14.11,22.84a71.7,71.7,0,0,0-10.13,28.38c-1.28,9-2.52,14.48-.17,14s11.72-6.4,15.77-10.77c7-7.49,9.2-11.37,10.78-15.29A127.49,127.49,0,0,0,191,132.46c2.76-1.12,2.92-1.49,2.92-1.49s-1.5,8.17-.6,8.29,11.36-9.88,11.36-9.88l2.49.75s-10.28,8.6-14.79,16.48-5,10.32-5,10.32a72.93,72.93,0,0,0,8.65-3.56c5.83-2.72,8.21-3.67,12.3-7.67s7.29-6.74,7.29-6.74l1.45.16s-1.21,4.49-1.07,5.16c0,0-5.73,5.27-9.88,7.29a73.92,73.92,0,0,0-15,9.56c-10.22,8.23-17.82,15-23.68,19.36s-9.17,11.1-10.76,16S156,209.29,155.29,214s.77,5.71,3.15,3.34,6.64-6.94,10.2-9.64,14.52-14.59,14.52-14.59,1.07,1.93,2,2.15c-6.06,6-12.86,14.09-11.74,14.13s20.73-.91,20.73-.91-1.53,1.26.39,3.6c-9.32.41-10.11,1.13-15.32,1.12s-18.37,3.47-21.45,12.45S152,258,154.31,273.57c0,0,.48,3.05-11.68,2.59s-18.16-1.24-17-4.8,3.5-10.28,4.25-15.55,3.43-22.58,2.61-36-6.79-25.43-16.45-29.19-16-3.44-28.3-11.1a6,6,0,0,0,1.59-2.37c7.29,3.62,19.26,8.8,26.32,8.66-2.3-4.42-4.66-9.17-9-11.12s-12.2-4.94-12.2-4.94a27.74,27.74,0,0,0,2.76-1.45c2.94,1.17,7.94,2.42,8.66,1.54s-3.85-9.45-3.85-9.45S105.14,160.56,105.89,160.58Z" transform="translate(-16.97 -26.28)"/><g class="cls-8"><path class="cls-7" d="M87.76,179.48c12.27,7.66,18.65,7.33,28.3,11.1s15.66,15.73,16.45,29.19-1.87,30.77-2.61,36-3.06,12-4.25,15.55,4.83,4.35,17,4.8,11.68-2.59,11.68-2.59c-2.31-15.61.32-39,3.41-47.93a10.85,10.85,0,0,1,.54-1.26.41.41,0,0,1,0-.44c3.18-5.45,7.34-11.11,14.38-10.42a.61.61,0,0,1,.47.61,25.22,25.22,0,0,1,6.08-.94c5.21,0,6-.71,15.32-1.12-1.92-2.34-.39-3.6-.39-3.6s-19.59.95-20.73.91,5.68-8.12,11.74-14.13c-.88-.22-2-2.15-2-2.15s-11,11.88-14.52,14.59-7.83,7.27-10.2,9.64-3.82,1.38-3.15-3.34-.24-12.67,1.36-17.53,4.88-11.64,10.76-16,13.46-11.13,23.68-19.36a73.92,73.92,0,0,1,15-9.56c4.15-2,9.88-7.29,9.88-7.29-.14-.67,1.07-5.16,1.07-5.16l-1.45-.16s-3.21,2.73-7.29,6.74-6.47,5-12.3,7.67a72.93,72.93,0,0,1-8.65,3.56s.47-2.44,5-10.32,14.79-16.48,14.79-16.48l-2.49-.75s-10.48,10-11.36,9.88.6-8.29.6-8.29-.16.37-2.92,1.49a127.49,127.49,0,0,1-6.31,21.34c-1.58,3.92-3.83,7.8-10.78,15.29-4,4.37-13.45,10.28-15.77,10.77s-1.11-5,.17-14a71.7,71.7,0,0,1,10.13-28.38c5.8-9,10.2-16.88,14.11-22.84-.45-.44.12-1.66.12-1.66l-4.52,1.72s-.64.74-3.06,5.76-6.35,10.12-8.83,13.29-1.66-5.17-3.67-7.65-3.71-10.78-3.71-10.78a9.59,9.59,0,0,1-5.52-1.08s-.3,2.42,3.86,10.23,4.51,10.11,3.65,13.77-4.11,9.78-4.9,13-2.49,9.14-4.26,9.62-2.32-2.77-2.78-16.27c-.29-8.25-1.77-21.29-6.62-31.41-2.18,1.35-5.6.58-5.6.58s2.8,6.2,4.17,8.53,3.06,7.21,3.47,15,2.3,26.9,0,26.67-11.23-21.43-13.54-30.31-3.19-23-3.19-23l-4,2s2.75,9.34,1.39,9.43-6.5-8-6.5-8,.48,1.44-1.43,4c6.8,8.36,7.55,13.78,11.68,24.15s5.82,18.81,4.93,28.71c-.64,7.22-.17,15.6-1.07,17.13s-7.1-5.09-16-12a29.37,29.37,0,0,1-10.69-15.59c-.75,0-3.82-.23-3.82-.23s4.55,8.58,3.85,9.45-5.72-.37-8.66-1.54a27.74,27.74,0,0,1-2.76,1.45s7.88,3,12.2,4.94,6.67,6.7,9,11.12c-7.06.14-19-5-26.32-8.66A6,6,0,0,1,87.76,179.48Zm65.06-5.15c-.25.85-.46,1.73-.64,2.62a212.55,212.55,0,0,0-2.08,23.77c-.28,7.41.74,14.82-.72,22.15-.1.54-.8.18-.89-.18a103.37,103.37,0,0,1-3.44-26.77,63.14,63.14,0,0,1,1.38-13.57,28.58,28.58,0,0,0,1.06-7.79c-.14-2.63-.78-5.17-.76-7.81,0-.55.66-.42.86-.06a25,25,0,0,1,2.46,10c.53-3.51,1.24-7,3.26-10,.28-.43.87,0,.87.4A21.61,21.61,0,0,1,152.82,174.33Zm11.21,5.3c5.16-4.27,10.45-8.39,14.85-13.47,5-5.84,7.63-13.1,11.05-19.88.25-.48,1,.1.88.53a70.16,70.16,0,0,1-5.95,13.55,32.41,32.41,0,0,1-4.52,7.38c-4.4,5.11-10.15,8.83-15.61,12.69C164.29,180.75,163.61,180,164,179.63Zm-11.18,38.71c-.12.6-.89.11-.93-.3-.29-4-.2-8-.14-12,.05-3.82-.88-7.61-.38-11.44.78-5.95,6.73-10.67,11.17-14,.38-.29,1,.32.77.72-.81,1.18-1.65,2.35-2.48,3.53-2.66,4.62-5.32,9.15-6.28,14.48C153.46,205.59,154.08,212.05,152.85,218.34Zm-5.23,24.37c.32-7.39,2.84-14.6,4-21.86.1-.61.87-.09.92.3.49,4.22,0,8.44-.13,12.66a.33.33,0,0,1-.2.34c-.09,4.17-.22,8.32-.32,12.48-.14,6.25-1.66,12.36-1.74,18.62,0,.67-.91.33-.94-.19C149,257.58,147.31,250.21,147.62,242.71Zm-5.28-28.13c-.11-.65.76-.33.9.06a52.13,52.13,0,0,1,2.53,13.4,51.69,51.69,0,0,1,.29,18.27c-.12.63-.87.08-.92-.3-.79-5.25-1.29-10.53-1.75-15.81S143.19,219.71,142.34,214.58Zm-1.28-37.06a62.16,62.16,0,0,1-.47,16.84c-.09.55-.8.17-.9-.18a84.49,84.49,0,0,1-2.57-15.07c-.44-5.49.62-10.88.55-16.35,0-.63.79-.38.91.06a93.57,93.57,0,0,1,2.95,14.38C141.58,177.55,141.32,177.61,141.06,177.52Zm-22.69,2.27c4,2.63,7.3,6.09,10.78,9.34a.55.55,0,0,1,.18.31c5.26,4.93,10,10.26,11.65,17.61.14.61-.58.61-.83.17-5.87-10.17-14.86-17.84-22.3-26.79C117.48,180,117.86,179.47,118.37,179.79Z" transform="translate(-16.97 -26.28)"/><path class="cls-7" d="M172,214.45a29,29,0,0,0-8.72,4.17C165.51,216.12,168.31,214.32,172,214.45Z" transform="translate(-16.97 -26.28)"/></g><g class="cls-8"><path class="cls-7" d="M212.68,143.24a41.49,41.49,0,0,1-8.43,7.6c-5.76,4.09-12.12,6.39-18.42,9.31.79-1.17,1.6-2.35,2.41-3.51,1.25-.44,3.83-1.41,7.79-3.27,5.83-2.72,8.21-3.67,12.3-7.67s7.29-6.74,7.29-6.74l1,.11A24.21,24.21,0,0,0,212.68,143.24Z" transform="translate(-16.97 -26.28)"/><path class="cls-7" d="M193.29,139.26c.88.14,11.36-9.88,11.36-9.88l1.23.37c-4.39,4.74-9.92,8.34-14.06,13.33-3.94,4.75-5.82,11-8.87,16.36-3.6,6.25-8.27,10.71-14,15-5.22,3.89-10.6,7.57-15.44,11.93,1.42-4.37,1.49-9.06,3.06-13.41l1.11-3c-1,6.52-1.52,10.27.45,9.88,2.32-.49,11.72-6.4,15.77-10.77,7-7.49,9.2-11.37,10.78-15.29A127.49,127.49,0,0,0,191,132.46c2.76-1.12,2.92-1.49,2.92-1.49S192.39,139.14,193.29,139.26Z" transform="translate(-16.97 -26.28)"/><path class="cls-7" d="M170.41,211.22c-1.89-.26-3.88,1.49-5.22,2.56a54,54,0,0,0-11.78,13.09c-.43-2.15.11-4.48.55-6.57s.78-4.36,1-6.6c.16-1.61.36-3.2.61-4.79a42,42,0,0,1-.29,5.08c-.67,4.72.77,5.71,3.15,3.34s6.64-6.94,10.2-9.64,14.52-14.59,14.52-14.59,1.07,1.93,2,2.15c-6.06,6-12.86,14.09-11.74,14.13s20.73-.91,20.73-.91-1.53,1.26.39,3.6c-9.32.41-10.11,1.13-15.32,1.12a21.63,21.63,0,0,0-3.82.42C173.7,212.88,172.35,211.48,170.41,211.22Z" transform="translate(-16.97 -26.28)"/><path class="cls-7" d="M105.58,160.57h.31a21.05,21.05,0,0,0,1.24,3.56C106.58,163,106.06,161.77,105.58,160.57Z" transform="translate(-16.97 -26.28)"/><path class="cls-7" d="M147.52,147.25c0,3.74,0,7.5-.17,11.24-.15,3.53-.44,7.18-2,10.38a17.87,17.87,0,0,1-2.53-6.3c.6.89,1.11,1.4,1.47,1.44,2.34.23.47-18.86,0-26.67s-2.09-12.72-3.47-15-4.17-8.53-4.17-8.53,3.42.77,5.6-.58a66.51,66.51,0,0,1,5,16.41C147.1,135.48,147.46,141.35,147.52,147.25Z" transform="translate(-16.97 -26.28)"/><path class="cls-7" d="M158.24,122.28c2.35,4.53,5.55,9.5,4.67,14.85s-3.64,10.11-5.62,15.13q-3.06,7.77-6.06,15.56a28.47,28.47,0,0,1-.55-7.24.9.9,0,0,0,1,.29c1.77-.48,3.46-6.39,4.26-9.62s4-9.36,4.9-13,.49-5.94-3.65-13.77-3.86-10.23-3.86-10.23a10.18,10.18,0,0,0,2.24.87A28.18,28.18,0,0,0,158.24,122.28Z" transform="translate(-16.97 -26.28)"/><path class="cls-7" d="M128.51,141.83c.73.91,1.44,1.85,2.07,2.82a31,31,0,0,1,4.94,15.9c.17,5.69-.71,11.37-.67,17.08a49.52,49.52,0,0,0,.36,8.61c.45,2.43,1.06,4.84,1.47,7.27a42,42,0,0,1-8-7.29c2.12,1.71,3.48,2.55,3.87,1.9.9-1.53.43-9.91,1.07-17.13.89-9.9-.8-18.34-4.93-28.71C128.62,142.12,128.56,142,128.51,141.83Z" transform="translate(-16.97 -26.28)"/><path class="cls-7" d="M89.35,177.11c7.29,3.62,19.26,8.8,26.32,8.66-2.3-4.42-4.66-9.17-9-11.12s-12.2-4.94-12.2-4.94a27.74,27.74,0,0,0,2.76-1.45c2.94,1.17,7.94,2.42,8.66,1.54s-3.85-9.45-3.85-9.45l2.55.17c1.56,4.08,3.68,8,5.26,12,2,5.09,6.16,8.76,9.78,12.75,3.4,3.76,6.79,7.51,10.29,11.19,3.34,3.53,6.74,7.34,8.47,12,2.08,5.53,1.88,11.69,2.27,17.51.46,6.71.87,13.53,0,20.22-.72,5.63-1.73,11.12-1.95,16.8-.12,3.25-.7,7.45,1.18,10.32.14.21.5.49.74.25,5.13-5,2.81-12.92,5.08-19.13.46,5.36.38,11.43,3.67,15.8.15.2.6.34.74,0,2.82-5.79,1.11-13.13,2-19.33a80.89,80.89,0,0,1,3-13.48c-1.63,10.88-2.39,25.34-.8,36.11,0,0,.48,3.05-11.68,2.59s-18.16-1.24-17-4.8,3.5-10.28,4.25-15.55,3.43-22.58,2.61-36-6.79-25.43-16.45-29.19-16-3.44-28.3-11.1A6,6,0,0,0,89.35,177.11Z" transform="translate(-16.97 -26.28)"/></g><path class="cls-2" d="M68.43,120.59c-7.12-8.08-2.53-24.78,12.12-26-1.2-2.6,2.06-3.39,2.06-3.39s-2.83-12.71,10.11-14.8a14.08,14.08,0,0,1,1.41-4.15s-.37-12.14,8.5-16.73,15,2.71,15,2.71c2.61-5.82,8-2.86,8-2.86.85-6,7.11-8.66,10.17-3.06,0,0,3.22-8.62,10.19-3,3.94-4.64,10.83-2.28,12.39.35-.67-9,18.1-8.77,17.21,6.1,4.78-2.09,8.06,1,8.85,4.31,2.93-5.09,6.11,3.39,6.11,3.39,7.33-7.22,19.55,7.72,8.48,17.09,5.93,1.23,3,6.67,3,6.67,5.1-1.7,4.69,3.25,4.69,3.25,7.28-2.23,14.6,7.66,3.11,17.72,5.89,1.56,5,8.25,2.43,9.1,5.66.13,2.19,7.67-1.07,8.46,9.85,5.12.39,16.41-8.73,15.28,1,16.83-11.42,17.53-11.42,17.53,4.65,12.15-12.19,14.28-19.46,8-2.36,6.92-10.27-.17-10.27-.17,0,8.54-17.35,8.13-24.13,2.38-2.55,11.35-19.16,6.38-20.29-1.2,0,0-11,8.32-20.39,2.18C88.16,163.94,90,159.11,91,156c-4.29.36-9.31-7.56-8.61-11.41C77.42,152.7,52.3,135.24,68.43,120.59Z" transform="translate(-16.97 -26.28)"/><path class="cls-6" d="M82.36,144.58c-.7,3.85,4.32,11.77,8.61,11.41-1,3.12-2.81,7.95,5.59,13.66,9.39,6.14,20.39-2.18,20.39-2.18,1.13,7.58,17.74,12.55,20.29,1.2,6.78,5.75,24.12,6.16,24.13-2.38,0,0,7.91,7.09,10.27.17,7.27,6.32,24.11,4.19,19.46-8,0,0,12.47-.7,11.42-17.53,9.12,1.13,18.58-10.16,8.73-15.28,3.26-.79,6.73-8.33,1.07-8.46,2.55-.85,3.46-7.54-2.43-9.1,11.49-10.06,4.17-19.95-3.11-17.72,0,0,.41-5-4.69-3.25,0,0,2.95-5.44-3-6.67,11.07-9.37-1.15-24.31-8.48-17.09,0,0-3.18-8.48-6.11-3.39-.79-3.26-4.07-6.4-8.85-4.31.89-14.87-17.88-15.05-17.21-6.1-1.56-2.63-8.45-5-12.39-.35-7-5.58-10.19,3-10.19,3-3.06-5.6-9.32-2.92-10.17,3.06,0,0-5.44-3-8,2.86,0,0-6.13-7.29-15-2.71s-8.5,16.73-8.5,16.73a14.08,14.08,0,0,0-1.41,4.15c-12.94,2.09-10.11,14.8-10.11,14.8s-3.26.79-2.06,3.39c-14.65,1.24-19.24,17.94-12.12,26C52.3,135.24,77.42,152.7,82.36,144.58Zm83-31.84-.15.13c-3.08,2.37-5.5-1.87-6.34-4.74-2.36,3.23-6.09-.57-6.93-3.72-1-3.65.81-7.58,3.44-10.33a5.37,5.37,0,0,1-4.15-.68c-1.79-1.17-1.12-3.17-.12-4.72a5.48,5.48,0,0,1-4.12-.44,7.6,7.6,0,0,1-1,2.71c-.95,1.59-3.76,2.69-4.94,1.9-2.14,4.24-8.75,2.88-10.07-1.23a3.13,3.13,0,0,1-3.3.67,5.15,5.15,0,0,1-3.5-5.62c-4.8.42-8.67-4.31-6.23-8.44-4.16.64-9-3-9.63-7.07a4.71,4.71,0,0,1,3.47-5.42c2.39-.68,4.64,1.61,6,3.59a3.19,3.19,0,0,1,4.9-2.39c-1-2.75-.74-6,2.65-6.91s4.52,2.61,4.35,5.3a5.41,5.41,0,0,1,4.33,1.19c-.2-3.64,3.61-5.23,7.07-4.7A11,11,0,0,1,139.89,56c.25-2.42,1.89-4.43,4.49-4a3.65,3.65,0,0,1,2.93,3.36c2.28-2.46,6.09.9,7.16,4.07,1.73-2.63,4.3-3.5,6.92-.92a9,9,0,0,1,1.83,2.72c1.73-.17,3.6,1.44,5.06,2.88.8-2.66,3.77-3.12,5-1.1a3.78,3.78,0,0,1,4.85-2.21c3.39,1.28,2.62,5,1.37,7.71,2.36-.26,4.17,1.24,5.36,3.27.74-2.68,3.77-3.28,6.09-1.68.11-2.06.94-5.05,3.29-5.17h.21c1.18-2.19,3.73-1.12,4.5,1.15a4.1,4.1,0,0,1-.65,4.15c-.86.9-.94.67-.62,1.74a1.69,1.69,0,0,1-.25,1.32c1.56.25,2.31,1.3.95,2.9-1.59,1.88-4.78,1.41-7.29,1,2.33,1.92,3.6,4.6,1,6.5a2.36,2.36,0,0,1,1.73,2,3.5,3.5,0,0,1,5.53.91c1.62,2.49.71,5.59-1.14,7.63a2.9,2.9,0,0,1,2.19,3c3.15-2.61,7.32-5.86,9.78-.64,2.07,4.39-3,8.56-7,8.44a4.56,4.56,0,0,1-1.4,4.33c2.75.76,5.66,3,4.3,5.7a3.64,3.64,0,0,1,3.17,4.33c-.47,3.85-4,4.51-7.1,3.68a5.44,5.44,0,0,1,.58,3.66,4.36,4.36,0,0,1,3.68,5.18,3.59,3.59,0,0,1-4.58,2.64,10,10,0,0,1-4.15-2.71c-.06.07-.11.14-.17.2-2,2.1-4.87.27-6.56-1.37-1.28,4.81-6.75,5.08-8.83,1.15-1.18,4-6.88,2.65-8.23-1.48a16.9,16.9,0,0,1,.79-11.3c-2.38-.3-3.18-2.23-3.09-4.29A4.81,4.81,0,0,1,165.4,112.74ZM91.69,135.55c.48-2.2,2.24-3,4.18-3.05a6.36,6.36,0,0,1-3-3.35c-.77-2.16.53-4.43,2-5.9a7.65,7.65,0,0,1,6.3-2.12c2.3.33,3.78,2.16,4.67,4.18,1.12-3.33,3.8-5,6.89-4-2-2.63-3.17-6.62-1-9.22,3.47-4.14,10.11-1.34,10.61,3.61,3.81-.41,6.15,2.13,7.43,5.47,1.41-2.17,3.87-4,6.54-2.86a4.91,4.91,0,0,1,.81.47c1.73-3.81,7,.37,7.76,4.12,1-.68,2.28.53,2.95,1.8,5.71-5.17,13.39,2.94,10.13,7.5,2.1-.6,4.29-.86,6.19.25a4.59,4.59,0,0,1,1.24,6.68,4.41,4.41,0,0,1-3.21,1.47c-1,.08-.75-.3-.94.62a2.41,2.41,0,0,1-.58,1.3,4.43,4.43,0,0,1-3.53,1.12c1.15,2,.58,5.06-.7,7.15-1,1.52-2.67,3-4.56,2.77-2.55-.24-4.22-2.42-5.41-4.54-.88,3.4-3.87,5.57-6.78,3-1.08,2.16-3.17,1.91-5,.83a8.46,8.46,0,0,1-5.53,4.54c-4.34,1.16-7.14-1.74-8.17-5.38-1.51,3.33-6.7,1.37-9.42-1.19-2.22-2.1-3.86-5.57-2.85-8.59.07-.19.14-.37.22-.54a8.46,8.46,0,0,1-.82-.24,3.72,3.72,0,0,1-1.1-.63c-1.83,3.27-8.66,2.43-11.64,1C93.27,140.64,91.13,138.15,91.69,135.55Z" transform="translate(-16.97 -26.28)"/><path class="cls-6" d="M68.43,120.59c-7.12-8.08-2.53-24.78,12.12-26-1.2-2.6,2.06-3.39,2.06-3.39s-2.83-12.71,10.11-14.8a14.08,14.08,0,0,1,1.41-4.15s-.37-12.14,8.5-16.73a12,12,0,0,1,8.83-1.11,4.23,4.23,0,0,0-.25.42,2.54,2.54,0,0,0,0,2.23,6.22,6.22,0,0,0-7,1.94c-2.32,2.64-2,6.18-.23,8.9-5.06-1.35-4.42,5.68-2,8.87a23.15,23.15,0,0,0,6.61,5.69,4,4,0,0,0-2.73,1.37,3.08,3.08,0,0,0-.42,3.18c-2.09-.87-4.51-.85-4.4,1-1.4-1.26-3.32-2.15-5.11-1.64-2.56.75-3,3.77-2,5.92A23.47,23.47,0,0,0,99,98.68a3.1,3.1,0,0,0-1.87,2.87A6.41,6.41,0,0,0,91,99.07c-3,.61-3.49,4.24-3,6.69a16.1,16.1,0,0,0,2.59,6,4.14,4.14,0,0,0-3.68-.43,3.37,3.37,0,0,0-2,3.53c-2.92-2.56-8.18-5.32-9-.42a9.34,9.34,0,0,0,1.77,6.33,7.17,7.17,0,0,0-4.1,2.12,5.61,5.61,0,0,0,.11,6.73,5.34,5.34,0,0,0,6.54,1.75c-1.73,3.88,1.45,8.77,5.2,6.61a12.7,12.7,0,0,0,6,8A15.56,15.56,0,0,0,99,148c-.55,2-.55,4.07,1,5.71,2.16,2.27,4.87,1.26,6.6-.68-.77,3.9-1.15,8.17,2.62,10.51s6.28-.13,8-3.17a12.12,12.12,0,0,0,3.25,7.11,6.08,6.08,0,0,0,7.12.82c1.73-1,2.3-2.9,2.27-4.85a4.35,4.35,0,0,0,4.58,1.79,4.74,4.74,0,0,0,3.35-3.49,9,9,0,0,0,4.09,3.24,4.84,4.84,0,0,0,6.52-4.62c2.16,2.41,5.65,4.31,8.09,1.57a3.92,3.92,0,0,0,1-2,6.43,6.43,0,0,0,2.09.13,5.45,5.45,0,0,0,4.74-6.23,2.63,2.63,0,0,0,3.83-.73c.8,4.15,3.72,8.29,7.24,9.62,2.2.84,5.7-.13,6.35-2.66a7,7,0,0,0-1.12-5.45c1.3.65,2.72.93,3.84.07a3.89,3.89,0,0,0,1.26-1.51,5.88,5.88,0,0,0,2.78,1.12c3.36.38,3.14-3.27,2.32-5.77,1.43,1.13,3.3,2.16,4.93,1.34s2.23-2.64,2.41-4.37a9.46,9.46,0,0,0-.79-4.74c1.92-1.15,2.38-3.2,2-5.26,1.65,1.61,4,2.47,6.25,1.3a4.77,4.77,0,0,0,1.68-1.41,6.12,6.12,0,0,0,4.26-.06c2-.87,3.34-3.22,3.6-5.63,1.87,5.42-5.47,12.14-12.61,11.26,1,16.83-11.42,17.53-11.42,17.53,4.65,12.15-12.19,14.28-19.46,8-2.36,6.92-10.27-.17-10.27-.17,0,8.54-17.35,8.13-24.13,2.38-2.55,11.35-19.16,6.38-20.29-1.2,0,0-11,8.32-20.39,2.18C88.16,163.94,90,159.11,91,156c-4.29.36-9.31-7.56-8.61-11.41C77.42,152.7,52.3,135.24,68.43,120.59Z" transform="translate(-16.97 -26.28)"/><path class="cls-2" d="M167.06,225.41s-5.86-3-4.24-8.85,9-4.61,10.47-3.83c-2.09-5.27,2.24-7.53,4.49-6.5,0-1.7.91-1.81,1.55-1.56a3.84,3.84,0,0,1,6.84-3.2c1.54-1.55,5.68-.55,6.34.55.06-1.88,2.59-1.76,3.92-.8-.34-4.84,11.43-4.11,10.39,4.76,3.44-1.68,6.49,1.11,6.44,2.81,0,0,5.5-.65,5.9,5.79s-6.63,7.27-6.63,7.27,5.25,3.56-.15,7.43c2,1.68.18,6.81-5.94,5.72.47,2.31-3.36,3.11-4.72.35-.8,2.86-6.1,4.3-9.09,2-.84,2.19-4,1.55-5.46-1-2.41,3.11-13,5.6-12.53-3.89C171.54,233.43,166.84,230.2,167.06,225.41Z" transform="translate(-16.97 -26.28)"/><path class="cls-9" d="M167.06,225.41c-.22,4.79,4.48,8,7.58,7-.43,9.49,10.12,7,12.53,3.89,1.48,2.59,4.62,3.23,5.46,1,3,2.34,8.29.9,9.09-2,1.36,2.76,5.19,2,4.72-.35,6.12,1.09,8-4,5.94-5.72,5.4-3.87.15-7.43.15-7.43s7-.82,6.63-7.27-5.9-5.79-5.9-5.79c.05-1.7-3-4.49-6.44-2.81,1-8.87-10.73-9.6-10.39-4.76-1.33-1-3.86-1.08-3.92.8-.66-1.1-4.8-2.1-6.34-.55a3.84,3.84,0,0,0-6.84,3.2c-.64-.25-1.59-.14-1.55,1.56-2.25-1-6.58,1.23-4.49,6.5-1.44-.78-8.85-2-10.47,3.83S167.06,225.41,167.06,225.41Zm16.22-17c.36-4.26,5.64-3.77,8.9-2.49a3.81,3.81,0,0,1,5-2.21c.07-1.09.48-2.18,1.68-2.4a5.29,5.29,0,0,1,4,1.43A7,7,0,0,1,205.5,207a4.22,4.22,0,0,1,0,1.06,5.77,5.77,0,0,1,2,2.68.24.24,0,0,1,.12-.07c4-1.29,9.84.65,7.48,5.79-.91,2-3.09,2.61-5.45,2.54a3.91,3.91,0,0,1-1.9,3.48,3.35,3.35,0,0,1,1.56,4.47c-1,2.31-3,2.26-5.08,1.41a.75.75,0,0,0,0,.15c-.35,3.33-4,3.23-6.48,2.39-4.87-1.61-6.87-7.67-5.61-12.5-2.51-.34-5.11-2.45-3.85-4.88A5,5,0,0,1,183.28,208.39Z" transform="translate(-16.97 -26.28)"/><path class="cls-9" d="M162.82,216.56c1.62-5.81,9-4.61,10.47-3.83-2.09-5.27,2.24-7.53,4.49-6.5,0-1.7.91-1.81,1.55-1.56a3.82,3.82,0,0,1,6.69-3.34c0,.06,0,.12,0,.18a3,3,0,0,0-3.44.6c-1.67,1.61-1.68,4.24-.77,6.44a4.61,4.61,0,0,0-4,1.45,6.87,6.87,0,0,0-1.24,5.42,6.81,6.81,0,0,0-5.75,1c-3.23,2.52.41,5.85,3.13,6.83l0,0a4.7,4.7,0,0,0,.72,3.67,4.61,4.61,0,0,0,3.14,2.09,6.85,6.85,0,0,0,.72,2c1.65,3.08,5.53,4.31,7.69,2.24a4.71,4.71,0,0,0,.79,1c.84.79,2.19,1.6,3.4,1.14a2.3,2.3,0,0,0,1.26-1.09c3.3,1.83,7.72,1.72,8.81-1.12a6.94,6.94,0,0,0,5.68.08,4.24,4.24,0,0,0,2-2.44,3.5,3.5,0,0,0,2.3-.88,2.61,2.61,0,0,0,.9-3.24,2.94,2.94,0,0,0,2.88-3.18c.88,1.4,1.26,3.5-1.81,5.7,2,1.68.18,6.81-5.94,5.72.47,2.31-3.36,3.11-4.72.35-.8,2.86-6.1,4.3-9.09,2-.84,2.19-4,1.55-5.46-1-2.41,3.11-13,5.6-12.53-3.89-3.1,1.05-7.8-2.18-7.58-7C167.06,225.41,161.2,222.36,162.82,216.56Z" transform="translate(-16.97 -26.28)"/><path class="cls-10" d="M207.78,212a2.88,2.88,0,0,1,2.54-.74,3.29,3.29,0,0,1,2,1.29l0,0a2.8,2.8,0,0,1,.59.6,2.34,2.34,0,0,1,0,2.6,2.47,2.47,0,0,1-2.44,1.17C208.35,216.74,206.1,214,207.78,212Z" transform="translate(-16.97 -26.28)"/><path class="cls-10" d="M204.81,215.36c.77-.65,1.88.24,2.21,1a1,1,0,0,1-.1,1.14.73.73,0,0,1-.31.19.69.69,0,0,1-.79.09C205.14,217.39,203.87,216.13,204.81,215.36Z" transform="translate(-16.97 -26.28)"/><path class="cls-10" d="M205.33,220h.06a1.41,1.41,0,0,1,1.16.64,1,1,0,0,1,.32,1.11c-.09.36-.62.46-.92.4a1.58,1.58,0,0,1-1.21-1.56A.62.62,0,0,1,205.33,220Z" transform="translate(-16.97 -26.28)"/><path class="cls-10" d="M181.31,227.72a1.88,1.88,0,0,1,2.7-1.12,4,4,0,0,1,2,1.74.7.7,0,0,1,.16.19,2.9,2.9,0,0,1,.42,2.64,1.78,1.78,0,0,1-1.74,1.27,3.81,3.81,0,0,1-2.79-1.57A3.52,3.52,0,0,1,181.31,227.72Z" transform="translate(-16.97 -26.28)"/><path class="cls-10" d="M188.84,230.9c.3,0,.66.62.27.62S188.45,230.9,188.84,230.9Z" transform="translate(-16.97 -26.28)"/><path class="cls-10" d="M188,218.48a1.34,1.34,0,0,1,.23.13,2.12,2.12,0,0,1,1.33,1.51c.2.71.07,1.76-.84,1.88-1.32.17-2.43-1.44-2.44-2.62A1.18,1.18,0,0,1,188,218.48Z" transform="translate(-16.97 -26.28)"/><path class="cls-10" d="M195.27,231.7a1.82,1.82,0,0,1,1.47.6,2.41,2.41,0,0,1,.7,1.81.7.7,0,0,1-.42.62,1.66,1.66,0,0,1-1.65-.3l0,0a2.14,2.14,0,0,1-.84-.69A1.23,1.23,0,0,1,195.27,231.7Z" transform="translate(-16.97 -26.28)"/><path class="cls-10" d="M169.24,224.19c.31-.47,1-.19,1.34,0a1.56,1.56,0,0,1,.57.62,2.22,2.22,0,0,1,.55,1.27.78.78,0,0,1-.24.55.25.25,0,0,1,.16,0c.46,0,1,.94.41.94-.38,0-.82-.67-.6-.87a1.25,1.25,0,0,1-.57.27,1.56,1.56,0,0,1-1.32-.53A1.76,1.76,0,0,1,169.24,224.19Z" transform="translate(-16.97 -26.28)"/><path class="cls-11" d="M224.89,185.7a2.1,2.1,0,0,1,2.78-.45,4.46,4.46,0,0,1,2.47,3.1,1.62,1.62,0,0,1-.38,1.52,1.66,1.66,0,0,1-1.49.65,4.2,4.2,0,0,1-2.91-1.87A3.86,3.86,0,0,1,225,188c-.05-.15-.1-.29-.14-.45.09.34-.1-.3-.11-.39A1.92,1.92,0,0,1,224.89,185.7Z" transform="translate(-16.97 -26.28)"/><path class="cls-11" d="M229,192.61c.34-.48,1.19,0,1.5.19s.91.86.79,1.42a.34.34,0,0,1,0,.09c-.07.35-.26.66-.67.67h-.07a1.63,1.63,0,0,1-1.15-.51,1.73,1.73,0,0,1-.52-1A.85.85,0,0,1,229,192.61Z" transform="translate(-16.97 -26.28)"/><path class="cls-12" d="M235.61,176a3.24,3.24,0,0,1,2.15.74,3.29,3.29,0,0,1,1.33,2.21,1.83,1.83,0,0,1-.09,1.85c-.84,1.09-2.47.22-3.26-.45a4.45,4.45,0,0,1-1.49-3A1.4,1.4,0,0,1,235.61,176Z" transform="translate(-16.97 -26.28)"/><path class="cls-12" d="M240.22,182.66a2.12,2.12,0,0,1,.23-.35c.33-.37.93,0,1.2.23a.76.76,0,0,0,.09.09,1.23,1.23,0,0,1,.4.79s0,0,0,.07a.41.41,0,0,1-.15.57c-.41.24-.92,0-1.29-.25S240,183,240.22,182.66Z" transform="translate(-16.97 -26.28)"/><g class="cls-13"><path class="cls-14" d="M248.73,154c1.42-.5,2.8.72,3.35,1.94a2.8,2.8,0,0,1,0,2.35c-.17.86-.7,1.56-1.82,1.28a3.91,3.91,0,0,1-2.64-2.44C247.18,155.93,247.36,154.48,248.73,154Z" transform="translate(-16.97 -26.28)"/><path class="cls-14" d="M244.79,160.86c1.21-1.14,2.81.42,3.24,1.55a1.08,1.08,0,0,1-.09,1.18,1.3,1.3,0,0,1-1.22.44,1.64,1.64,0,0,1-.88-.13C244.79,163.46,243.75,161.83,244.79,160.86Z" transform="translate(-16.97 -26.28)"/><path class="cls-15" d="M250.13,166.92a1.45,1.45,0,0,1,.24.52l0,0c.06.25.05.52-.22.59l-.28.06c-.62.12-1.3-.69-1.26-1.26C248.65,165.89,249.84,166.48,250.13,166.92Z" transform="translate(-16.97 -26.28)"/><path class="cls-16" d="M231.31,140.08c1.09-1.38,3.08-.3,4.14.64a3.88,3.88,0,0,1,1.06,1.22,3.34,3.34,0,0,1,.57,3.18,1.7,1.7,0,0,1-.18.26,2,2,0,0,1-.57.85c-1.42,1.22-3.57-.27-4.45-1.46S230.24,141.45,231.31,140.08Z" transform="translate(-16.97 -26.28)"/><path class="cls-15" d="M226.93,142.07a.91.91,0,0,1,.18-.27l0,0a.86.86,0,0,1,1-.1,1.94,1.94,0,0,1,.86.74c.43.67.38,1.78-.68,1.57a1.78,1.78,0,0,1-1.15-.8C227,143,226.72,142.4,226.93,142.07Z" transform="translate(-16.97 -26.28)"/><path class="cls-15" d="M219.42,153.38c.47-1.07,1.54-1,2.42-.46a3.72,3.72,0,0,1,1.44,1.87c.47,1.25.65,3.37-1.2,3.23l-.2,0a3.32,3.32,0,0,1-2.49-1.86A3.46,3.46,0,0,1,219.42,153.38Z" transform="translate(-16.97 -26.28)"/></g><path class="cls-17" d="M190.69,186.61a1.7,1.7,0,0,1,2-1.08,3.53,3.53,0,0,1,2.39,2,2.33,2.33,0,0,1,.12,2,1.4,1.4,0,0,1-.13.18.93.93,0,0,1-.72.72,2.81,2.81,0,0,1-2.52-.93A3,3,0,0,1,190.69,186.61Z" transform="translate(-16.97 -26.28)"/><path class="cls-17" d="M195.86,192.8a1.77,1.77,0,0,1,1.56,1.09c.21.47.14,1.24-.54,1.24a1.79,1.79,0,0,1-1.57-1.09C195.11,193.57,195.19,192.8,195.86,192.8Z" transform="translate(-16.97 -26.28)"/><path class="cls-17" d="M183,190.53a4.71,4.71,0,0,1,3.35,3,3,3,0,0,1,.14,2.1,1.82,1.82,0,0,1-2.07,1,3.69,3.69,0,0,1-1.7-.91,5.27,5.27,0,0,1-1.93-2.69A2,2,0,0,1,183,190.53Z" transform="translate(-16.97 -26.28)"/><path class="cls-11" d="M213.7,178.18a2.69,2.69,0,0,1,1.17,1.15s.07,0,.09.09a1,1,0,0,1,0,1.23c-.34.48-1.08.23-1.48,0a2.22,2.22,0,0,1-1-2C212.51,178.06,213.26,178,213.7,178.18Z" transform="translate(-16.97 -26.28)"/><path class="cls-18" d="M203.58,96.73a1.49,1.49,0,0,1,.85-.54l.15-.22c1.09-1.34,2.89-.52,3.76.59a4.16,4.16,0,0,1,.28,3.82A2.69,2.69,0,0,1,205,102a3.54,3.54,0,0,1-2.15-2.71A3.37,3.37,0,0,1,203.58,96.73Z" transform="translate(-16.97 -26.28)"/><path class="cls-18" d="M197.45,104.06c.38-.48,1.15-.28,1.63-.12.7.26,1.85,1.65,1,2.37l-.12.07c0,.57-.3,1.06-.91,1.07-1.2,0-1.92-1.34-2-2.38A1.45,1.45,0,0,1,197.45,104.06Z" transform="translate(-16.97 -26.28)"/><path class="cls-19" d="M199.44,111.52a1.66,1.66,0,0,1,1.57-.84,3.51,3.51,0,0,1,2.65,1.54,3.65,3.65,0,0,1,.72,1.75,2.93,2.93,0,0,1-.09,1.14,1.1,1.1,0,0,1-.15.26,1.28,1.28,0,0,1-1,1,3.4,3.4,0,0,1-2.62-1.28C199.74,114.25,198.81,112.67,199.44,111.52Z" transform="translate(-16.97 -26.28)"/><path class="cls-20" d="M204.8,117.18a1.25,1.25,0,0,1,1.29.42,1.47,1.47,0,0,1,.5,1.33c0,.07,0,.12,0,.19a.56.56,0,0,1-.54.55,1.46,1.46,0,0,1-1.19-.67,1.56,1.56,0,0,1-.29-.61c-.05-.13-.09-.27-.13-.4A.68.68,0,0,1,204.8,117.18Z" transform="translate(-16.97 -26.28)"/><path class="cls-20" d="M209.19,126.71a1.91,1.91,0,0,1,2.57.45,4.44,4.44,0,0,1,1,2.13c.27,1.28.16,3.16-1.6,3a2.76,2.76,0,0,1-1.9-1.35C208.32,129.7,208,127.71,209.19,126.71Z" transform="translate(-16.97 -26.28)"/><path class="cls-20" d="M202.53,128.25c.77.16,1.93,1.51,1,2.11h0l0,0-.06,0,0,0a1.25,1.25,0,0,1-1.24-.48,1.54,1.54,0,0,1-.49-1.1A.69.69,0,0,1,202.53,128.25Z" transform="translate(-16.97 -26.28)"/><path class="cls-16" d="M167.85,56.38c0-.17,0-.31.28-.26s1.11.87.54,1.11S167.65,56.71,167.85,56.38Z" transform="translate(-16.97 -26.28)"/><path class="cls-19" d="M193.36,67a1.06,1.06,0,0,1,1-.8,2.57,2.57,0,0,1,2,1.24,3,3,0,0,1,.48,1.72,1.14,1.14,0,0,1-.88,1c-.53.4-1.38,0-1.84-.43A2.75,2.75,0,0,1,193.36,67Z" transform="translate(-16.97 -26.28)"/><path class="cls-19" d="M193.79,74.16a.84.84,0,0,1,.53-.43c.16-.36.67-.35,1.05-.11s1.27,1.29.9,1.86a.94.94,0,0,1-1.07.5,1.88,1.88,0,0,1-1.22-.84A1.05,1.05,0,0,1,193.79,74.16Z" transform="translate(-16.97 -26.28)"/><path class="cls-19" d="M186.41,72.56c.14-.55.89-.47,1.27-.32l.06,0a1.8,1.8,0,0,1,1.15,1.83.18.18,0,0,1,0,.1c0,.82-.75,1.08-1.4.81A2,2,0,0,1,186.41,72.56Z" transform="translate(-16.97 -26.28)"/><path class="cls-19" d="M175.38,70.58a2.29,2.29,0,0,1,2.7-1.85,5.18,5.18,0,0,1,2.65,1.85,6,6,0,0,1,2,5.26,2.14,2.14,0,0,1-2.81,1.52,6.5,6.5,0,0,1-4.06-3.7A5.08,5.08,0,0,1,175.38,70.58Z" transform="translate(-16.97 -26.28)"/><path class="cls-19" d="M175.54,63c.64-.63,1.64-.05,2.16.43a2.58,2.58,0,0,1,1,2c0,.7-.67,1-1.29.87a2.33,2.33,0,0,1-1.48-1,3.67,3.67,0,0,1-.26-.47.85.85,0,0,1-.06-.17A1.4,1.4,0,0,1,175.54,63Z" transform="translate(-16.97 -26.28)"/><path class="cls-18" d="M167.17,45.7c1.71.22,3.09,1.78,4,3.14.13.21.27.44.39.68a3.46,3.46,0,0,1,.53.78,3.15,3.15,0,0,1-.8,4.2c-1.38.83-3.27-.5-4.22-1.39a7.29,7.29,0,0,1-2.44-4.44C164.46,47.07,165.38,45.47,167.17,45.7Z" transform="translate(-16.97 -26.28)"/><path class="cls-19" d="M162.62,62.08A8,8,0,0,1,167,68.46a2,2,0,0,1-.19,1c-.31,1.89-3,1.26-4.22.51a7.31,7.31,0,0,1-3.1-5C159.2,62.93,160.47,61.14,162.62,62.08Z" transform="translate(-16.97 -26.28)"/><path class="cls-19" d="M155.11,60.42a1.14,1.14,0,0,1,1.24-.08c.5.23,1,.86.82,1.43l0,.1a.6.6,0,0,1-.52.35,1.73,1.73,0,0,1-1.57-1C155,61,154.9,60.58,155.11,60.42Z" transform="translate(-16.97 -26.28)"/><path class="cls-19" d="M145.77,59h0a1.44,1.44,0,0,1-.15-.71c.05-.65.58-.82,1.14-.78a2.28,2.28,0,0,1,1.34.74c.63.63.86,1.84.11,2.15l-.11,0-.09,0a1.38,1.38,0,0,1-.89-.11,2.49,2.49,0,0,1-1.12-1,2,2,0,0,1-.22-.38S145.78,59,145.77,59Z" transform="translate(-16.97 -26.28)"/><path class="cls-19" d="M149.78,126.12c1.38-1.21,3.24-.11,4.33.94a5.69,5.69,0,0,1,1.49,2.58c.71.9,1,2.37,0,3.11s-2.43.25-3.36-.42a8.48,8.48,0,0,1-2.63-3.08C149.11,128.32,148.9,126.9,149.78,126.12Z" transform="translate(-16.97 -26.28)"/><path class="cls-20" d="M158.76,133.89a3.07,3.07,0,0,1,2.29,2.62,1.93,1.93,0,0,1,.12.54,1.45,1.45,0,0,1-1.31,1.4,2.27,2.27,0,0,1-1.73-.7,3.2,3.2,0,0,1-.95-1.72C156.93,134.94,157.38,133.54,158.76,133.89Z" transform="translate(-16.97 -26.28)"/><path class="cls-6" d="M106.69,101.38c1.33,1.1,2.14,2.53,3.66,3.37a6.38,6.38,0,0,0,4.29.17,12.56,12.56,0,0,0,3.63-1.52,4.48,4.48,0,0,0,1.19,1.51c1.48,1.19,3.49,1.28,5.35,1.26-.19,2.91,2.42,5.79,4.64,4.8.39,1.87,1.44,3.56,3.55,3.56s3.16-2,3.54-4.11c1.16,1.46,2.7,2.7,4.32,2.59a2.21,2.21,0,0,0,1.18-.44,15.35,15.35,0,0,0,4.53,4.78c2.05,1.43,3.88.33,4.19-1.45,2.18,1.76,5.51,3.38,6.82.89.81-1.54-.74-3.56-2-4.29a11.35,11.35,0,0,0-5.15-1.51,4.52,4.52,0,0,0-3.39-4.12,5,5,0,0,0-2-2.38c.17-2.71-1.09-5.6-3.71-6.53-2.07-.73-2.8,1-2.9,2.76a2.74,2.74,0,0,0-3.87,1,3.15,3.15,0,0,0-1.81-.49c-.54-4.14-7-6.52-8.45-3.62-1.14-1.1-2.56-1.75-3.93-1.24a5.37,5.37,0,0,0-3.9-3.91c-1.37-.29-2.44-.19-3,.47-.54,0-1,.26-.65,1l.07.18a9.21,9.21,0,0,0-2.11-.75c-2.07-.28-2.61,1-2.39,2.53a3.86,3.86,0,0,0-3.53-.24C102.28,97.07,105.5,100.4,106.69,101.38Z" transform="translate(-16.97 -26.28)"/><path class="cls-6" d="M102,104.45c1.16-.64,2.69.44,3.5,1.18a4.42,4.42,0,0,1,1.56,3.32c-.23,2-2.5,1.61-3.67.75l-.16-.12a5.44,5.44,0,0,1-1.69-1.6C100.8,106.83,100.64,105.21,102,104.45Z" transform="translate(-16.97 -26.28)"/><path class="cls-6" d="M96.25,105.5h0a1.24,1.24,0,0,1-.12-.6.8.8,0,0,1,1.25-.55,3.92,3.92,0,0,1,.91.64,1.79,1.79,0,0,1,.55,1.27.55.55,0,0,1-.48.7.65.65,0,0,1-.24,0,1.72,1.72,0,0,1-1.23-.55,3.09,3.09,0,0,1-.43-.54,2.68,2.68,0,0,1-.18-.28Z" transform="translate(-16.97 -26.28)"/><g class="cls-21"><path class="cls-22" d="M164.75,190.4c6.09-5.39,12.34-10.58,18.53-15.87,3-2.55,6.6-3.8,10.14-5.42a48.07,48.07,0,0,0,12.75-9.05c.11-.11.33.12.23.23a51.73,51.73,0,0,1-8.26,7c-4.09,2.69-8.9,4-12.81,7-6.94,5.28-13.24,11.24-20.28,16.38C164.9,190.81,164.61,190.52,164.75,190.4Z" transform="translate(-16.97 -26.28)"/><path class="cls-22" d="M175.68,178.62c5.15-5.3,6.39-12.18,10.25-18.23.11-.17.41.07.33.23-2.8,6.08-4.32,14.43-10.1,18.49C175.91,179.28,175.45,178.85,175.68,178.62Z" transform="translate(-16.97 -26.28)"/><path class="cls-22" d="M155.72,169.4c.05-.19.38.06.34.23C153,183,150,196.7,149,210.41c0,.53-.79,0-.8-.35C147.66,196.33,152.43,182.57,155.72,169.4Z" transform="translate(-16.97 -26.28)"/><path class="cls-22" d="M150,215.45a55.17,55.17,0,0,1,2.48-12.2c1.19-3.5,4.37-6.4,6.83-9,.11-.11.35.12.25.25-2.74,3.39-5.38,6.78-6.7,11-1.38,4.43-1.69,9.57-1.95,14.18-.49,8.37-.24,16.59-2,24.86,0,.27-.45,0-.42-.18C150.09,234.64,149,225.17,150,215.45Z" transform="translate(-16.97 -26.28)"/><path class="cls-22" d="M145.6,170.5c0-.16.2-.07.22,0,.38,2.27,1.39,4.48,1.55,6.79a69,69,0,0,1,0,8.51c0,.39-.59,0-.6-.26-.12-2.49,0-5,0-7.47S145.82,173.07,145.6,170.5Z" transform="translate(-16.97 -26.28)"/><path class="cls-22" d="M139.47,179.28c3.78,12.94.88,26.06,1.92,39.26,1,12.43,4.14,25.07,1.69,37.51-.05.28-.45,0-.41-.18,1.88-13.5-1.89-26.08-2.94-39.42-1-12.58,2.21-24.86-1.13-37.33C138.44,178.51,139.35,178.87,139.47,179.28Z" transform="translate(-16.97 -26.28)"/><path class="cls-22" d="M139.74,263.27c.6-3.49.78-7,1.16-10.54,0-.18.29,0,.28.12-.18,3.62,0,7.24-.51,10.82-.55,3.76-1.7,7.36-2.43,11.07-.05.28-.43,0-.42-.18C138.05,270.71,139.07,267.05,139.74,263.27Z" transform="translate(-16.97 -26.28)"/><path class="cls-22" d="M111,185.23c7,8.8,17,14.2,24.17,22.91.15.18-.1.31-.23.15-7.56-8.26-17.49-13.86-24.19-22.95C110.6,185.13,110.87,185.08,111,185.23Z" transform="translate(-16.97 -26.28)"/><path class="cls-22" d="M94.12,192.54c7.35,2.8,14.83,4.68,22.27,7.14.12,0,.21.31,0,.26-7.42-1.68-15.73-3-22.4-6.93C93.76,192.86,93.76,192.41,94.12,192.54Z" transform="translate(-16.97 -26.28)"/><path class="cls-22" d="M99.93,183.22c2,.43,4.08,1,6.16,1.29.12,0,.3.31.1.31a22.43,22.43,0,0,1-6.14-1C99.76,183.77,99.46,183.13,99.93,183.22Z" transform="translate(-16.97 -26.28)"/><path class="cls-22" d="M157,229.9c2.09-3,5.56-4.81,8.94-6,.19-.07.49.31.27.4a23.15,23.15,0,0,0-8.83,6C157.2,230.47,156.85,230.1,157,229.9Z" transform="translate(-16.97 -26.28)"/></g><path class="cls-11" d="M85.76,171.27c1.52-1.09,3.39-.26,4.65.84s2.28,3.21,1,4.6c-.84.88-2.25.66-3.35,0a5,5,0,0,1-2.17-1.66C85.1,174.07,84.48,172.18,85.76,171.27Z" transform="translate(-16.97 -26.28)"/><path class="cls-11" d="M94.16,177.93c.7-1,2.06-.27,2.74.32s1.43,1.75,1,2.6c0,.73-.85.89-1.44.85a3.15,3.15,0,0,1-1.79-1.1C94.1,179.88,93.52,178.82,94.16,177.93Z" transform="translate(-16.97 -26.28)"/><path class="cls-11" d="M104.92,180.37l.1-.14c.39-.64,1.1-.29,1.55.09a2.09,2.09,0,0,1,.19.21c.51.25.95.9.6,1.45-.61.93-1.83,0-2.25-.64C105,181.1,104.75,180.66,104.92,180.37Z" transform="translate(-16.97 -26.28)"/><path class="cls-11" d="M116.47,183.15c.28-1.2,1.87-.87,2.65-.47a4.67,4.67,0,0,1,2.59,3.15c.34,2-2.37,1.88-3.35.82l-.17-.11A3.36,3.36,0,0,1,116.47,183.15Z" transform="translate(-16.97 -26.28)"/><path class="cls-11" d="M59.24,178.67c1.15-.67,2.61.47,3.39,1.22a6.88,6.88,0,0,1,2,3,1,1,0,0,1-.22.93,1.86,1.86,0,0,1-.35.22,1.38,1.38,0,0,1-1.13.52,4.79,4.79,0,0,1-3.47-1.88C58.55,181.67,57.67,179.58,59.24,178.67Z" transform="translate(-16.97 -26.28)"/><path class="cls-11" d="M67.39,189.1a2.5,2.5,0,0,1,.75.27c.69.36,1.43,1.21.89,2s-1.73.17-2.11-.47a1.19,1.19,0,0,1-.21-.82C66.51,189.57,66.73,189,67.39,189.1Z" transform="translate(-16.97 -26.28)"/><path class="cls-11" d="M53.93,184.82c.92-.5,2.26,0,3.1.44,1.36.75,3.06,2,2.94,3.7a1.32,1.32,0,0,1-.22.64,1,1,0,0,1-.18.36c-.6.83-1.86.44-2.63.16a7.19,7.19,0,0,1-2.69-1.71C53.46,187.55,52.51,185.57,53.93,184.82Z" transform="translate(-16.97 -26.28)"/><path class="cls-11" d="M66,198.45a.65.65,0,0,1,.45-.19.4.4,0,0,1,.52,0c.48.31,1,1,.41,1.47a.64.64,0,0,1-.7.06l-.14-.07C66.18,199.51,65.55,198.85,66,198.45Z" transform="translate(-16.97 -26.28)"/><path class="cls-6" d="M163.43,145.12c.3,2.14,3.41,3.24,5.64,3.32.05.18.11.35.15.51.86,2.61,2.21,5.19,4.95,6.12,1.6.55,2.87-1.11,2.49-2.63a12.33,12.33,0,0,0-.75-2.08,2.05,2.05,0,0,0,1.29-.38,2.23,2.23,0,0,0,1-1.5c2,1.36,4.51,2.19,6.31.55.9-.82.25-1.93-.75-2.89,2.47.24,5.43-.06,4.77-2.41a3.46,3.46,0,0,0-3-2.38,2.17,2.17,0,0,0-.57-1.1,3.88,3.88,0,0,0-4.34-.64,2.81,2.81,0,0,0-2.28-1.83,1.41,1.41,0,0,0-1.76,1.09,3.1,3.1,0,0,0-1.62-.82,1.92,1.92,0,0,0-2.38,1.8,3.87,3.87,0,0,0-3-.91c-2.18.42-2.51,1.87-2.09,3.47C165.38,141.94,163,142.27,163.43,145.12Z" transform="translate(-16.97 -26.28)"/><path class="cls-23" d="M67.35,177.79c-.28,2.23.85,5.49,2.67,6a4.81,4.81,0,0,0,.63,3.83c1.23,1.79,2.56,1.68,3.83.66a6.61,6.61,0,0,0,1.64,4.27,3.54,3.54,0,0,0,2.41,1.09,10.38,10.38,0,0,0,1.1,2.18c.52.79,2.12,2.28,3.23,1.85A2.2,2.2,0,0,0,84.1,195a1.89,1.89,0,0,0,2.22-.1c1.91-1.55,1.19-3.94-.31-5.66a1.45,1.45,0,0,0,1.1-1.61,4.27,4.27,0,0,0-.74-2.24c1.83,0,3.6-.47,3.7-1.83.15-1.95-1.39-2.86-3.06-2.94a4.93,4.93,0,0,0-3.73-3.4c.15-3.06-1.27-6.88-3.31-8.24-1.22-.81-3.13-.43-3.25,1.26a7.59,7.59,0,0,0,.14,1.88c-1.23-.87-3.78-1.42-4.84,0a4.92,4.92,0,0,0-.56,1.15c-1.61-1.27-3.4-1.94-4.86-1.2C64.21,173.29,65.5,176.41,67.35,177.79Z" transform="translate(-16.97 -26.28)"/><path class="cls-19" d="M155.63,97.15c-.54,2.13.9,3.92,2.7,4.89a7.87,7.87,0,0,0,2.38.85,4.42,4.42,0,0,0,1.41,1.54,3.41,3.41,0,0,0,4.58-.28,4.42,4.42,0,0,0,2.5,3.17c1.65.71,3.25-.91,4.26-2.42a25.84,25.84,0,0,0,1.14,3c.86,1.91,1.82,4.91,3.93,5.87s3.12-.06,3.64-1.73a13.16,13.16,0,0,0,2.11,1.68c1.65,1,4.78,1.71,5.18-.27,1.8,1.25,4.51,2.33,5.61.59,1.79-2.83-1.56-6-4.09-8,1.87-.29,3.8-1.43,2.93-3.44,1.5,0,2.83-.43,3.36-1.64a4.34,4.34,0,0,0-1.14-4.57,5.36,5.36,0,0,0-3.27-1.53,2.41,2.41,0,0,0-.38-3.34,2.77,2.77,0,0,0-2.38-.72c.68-2.17.45-4.62-1.8-5.67a3.23,3.23,0,0,0-3.36.33,4.74,4.74,0,0,0-1.42-3c-2.69-2.45-4.77-.55-6.76,1.4-.71-3.21-3.13-7.19-6.33-5.65a4.89,4.89,0,0,0-3,4.52c-1.29-.91-3.37-2-4.64-.8a4.5,4.5,0,0,0-1.19,1.89c-3-2.33-7.93-3-7.86.61.05,3.28,2.72,5.67,5.43,7.19l.94.53a4.46,4.46,0,0,0-.91.71,3.42,3.42,0,0,0-1,1.84A3.67,3.67,0,0,0,155.63,97.15Z" transform="translate(-16.97 -26.28)"/></g><g id="Layer_1" data-name="Layer 1"><g id="Layer_5" data-name="Layer 5"><path class="cls-24" d="M186.68,187.73c-14.54-2.1-20.61-5.17-22.64-9s-1.33-6.42-1.33-6.42-4.43,2-5.33,2.21-5.24,1.4-7.93,1.26a37.07,37.07,0,0,1-8.93-1.55c-2.05-.76-4.35-1.38-4.35-1.38s1,.9-1,4-7.54,7.66-14.36,8.81-14.31-.09-24.37,5.32c-4.13,2.22-6.58,8.09-8,14.58,2.37,7.36,4.69,12.87,1.75,16.59a4.17,4.17,0,0,1-3.58,1.9c0,1.95.07,3.47.15,4.33,1.55,16.44,6.89,24.08,15.79,30.94,14.44,11.12,28,15.32,46,15.32s32.34-2.63,49.31-15c13.45-9.84,13.91-20.2,15.5-30.93.84-5.69-.08-28.37-6.25-34.16S193.46,188.72,186.68,187.73Z" transform="translate(-16.97 -26.28)"/><path class="cls-25" d="M182.62,143.47s-28.17-12.15-33.29-24.36c-7.39,12.51-21,12.09-34.7,25.47-.08.39-.15.77-.22,1.16,6.94,19.44,21.88,30,35,30,12.71,0,27.48-10.26,34.63-29.1C183.14,144.7,182.62,143.47,182.62,143.47Z" transform="translate(-16.97 -26.28)"/><path d="M182.55,143.54c-3.16-1.34-6.35-2.9-9.44-4.51s-6.14-3.36-9.1-5.25a69.42,69.42,0,0,1-8.47-6.24,25.06,25.06,0,0,1-6.63-8.25l.82,0a26.11,26.11,0,0,1-7.44,8.11,74.12,74.12,0,0,1-9.44,5.53,99.25,99.25,0,0,0-9.36,5.39,58.9,58.9,0,0,0-8.34,6.75l.21-.4-.21,1.15,0-.38a51.48,51.48,0,0,0,12.81,19.85,37.69,37.69,0,0,0,9.73,6.61,29.19,29.19,0,0,0,11.26,2.79,10.17,10.17,0,0,0,1.46,0l1.45-.07c.95-.16,1.93-.22,2.87-.46a23.28,23.28,0,0,0,2.84-.75l1.39-.45,1.36-.57a37,37,0,0,0,10-6.34,52.82,52.82,0,0,0,13.64-19.48v.18Zm.14-.14,1.6,3.18,0,.08,0,.1a51,51,0,0,1-13,20.48A39.09,39.09,0,0,1,161,174.11a27.83,27.83,0,0,1-12.15,2.66,29.67,29.67,0,0,1-12.09-3,38.45,38.45,0,0,1-10.15-7.09A53.52,53.52,0,0,1,113.7,146l-.07-.2,0-.19.22-1.17,0-.24.16-.16a61.39,61.39,0,0,1,8.64-6.8,101.8,101.8,0,0,1,9.55-5.34,74.06,74.06,0,0,0,9.37-5.32,25.5,25.5,0,0,0,7.28-7.71l.46-.78.36.84c1.31,3.13,3.74,5.73,6.27,8.06a69.27,69.27,0,0,0,8.29,6.33c2.9,1.92,5.91,3.7,9,5.37S179.45,141.92,182.69,143.4Z" transform="translate(-16.97 -26.28)"/><path class="cls-25" d="M149.45,72.87c25.66,0,44.26,24,44.26,40.15,0,13.84-3.13,19.38-3.13,22.7s-4.83,25.5,29.91,40.06c15.5,6.5,18.3,26.07,16.59,29.4s-8.28,2.15-10.34.16c-3.32-3.21-4.12-12-9-17.74-6.06-7.17-4.68-6.59-13.6-12.62-11.31-7.63-21.54-31.51-21.54-31.51s-28.17-12.15-33.29-24.36c-7.39,12.51-21,12.09-34.7,25.47-1.17,5.93-1.2,11.88-9.93,18.41-9.26,6.93-17,7.69-18.78,17.06-4.07,21,9.93,34.88,4.24,42.07S77,214.4,74.23,208s-2.08-29.76,12.32-41.64c14.2-11.71,17.27-14,22.39-24.53s-.57-10.95-.57-26.58C108.37,96.6,123.79,72.87,149.45,72.87Z" transform="translate(-16.97 -26.28)"/><path class="cls-26" d="M149.45,72.87c25.66,0,44.26,24,44.26,40.15,0,13.84-3.13,19.38-3.13,22.7s-4.83,25.5,29.91,40.06c15.5,6.5,18.3,26.07,16.59,29.4s-8.28,2.15-10.34.16c-3.32-3.21-4.12-12-9-17.74-6.06-7.17-4.68-6.59-13.6-12.62-11.31-7.63-21.54-31.51-21.54-31.51s-28.17-12.15-33.29-24.36c-7.39,12.51-21,12.09-34.7,25.47-1.17,5.93-1.2,11.88-9.93,18.41-9.26,6.93-17,7.69-18.78,17.06-4.07,21,9.93,34.88,4.24,42.07S77,214.4,74.23,208s-2.08-29.76,12.32-41.64c14.2-11.71,17.27-14,22.39-24.53s-.57-10.95-.57-26.58C108.37,96.6,123.79,72.87,149.45,72.87Z" transform="translate(-16.97 -26.28)"/><path class="cls-25" d="M34.21,59.23a8.45,8.45,0,0,1-.91-5.32c.4-3.27.86-6.19-.12-8.21s-3.87-7.28-4.88-11.44-2-7.8-2.69-8-4.3,8.33-3.67,14,1.52,6.64,1.79,8.28-.66,3-.51,6.47A44,44,0,0,0,24.74,63c.09.67-.8,1.56-1.66,2.18a18.35,18.35,0,0,1-4.21,1.61c-1.06.3-2,.29-1.89.85a5.26,5.26,0,0,0,1.2,2.93,5.38,5.38,0,0,0,2.95,1c.73.06,1.51-2.35,2.4-2.5a49.9,49.9,0,0,1,5.73-.91c.75.11,2.61,1.57,5.52,1s3.8-.37,5.5.18,5.39,2.4,5.81,2.33-.43-1.81-1.26-2.59c-1.23-1.14-1.59-1.27-2.41-2.17s-2.83-2.31-3.64-2.25A7.57,7.57,0,0,1,41,62.21c1.18-.66,2.34-1.78,3-1.9s1.68-.1,1.84-.31-2.17-.62-2.17-.62-.55-1.51-3.53-1.69S35.18,59,34.21,59.23Z" transform="translate(-16.97 -26.28)"/><path class="cls-25" d="M268.71,69.23c0-.13-.23-4.63-1.09-6.1s-4.16-5.67-5.82-7.83-3.64-4.26-4-4,1.67,2.8,1.82,4.41a22.89,22.89,0,0,0,1,4.66c.41,1.29,1.44,2.23,1.35,3.3a19,19,0,0,0,1.07,6.23,30.93,30.93,0,0,1,1.58,6.7c.07,1.53.16,2.16-1.23,1.81s-3.41-1.38-3.89-1-.68,3.9.51,5,3.86,1.39,5.06,1.29.53-2.7,1.14-2.75a10.51,10.51,0,0,0,5.68-1.29,8.87,8.87,0,0,0,3.43-3c.31-.24.57-.56.35-.58s-.2.19-.94-.3a3.64,3.64,0,0,0-2.1-.51c-.36,0-.8-.75.08-2s2.42-2.85,2-4.7-1-5.25-1.41-6.8-1.41-2.69-1.75-2.37.58,1.58.23,3.4-2.16,4.47-2.53,5.76S268.72,70.17,268.71,69.23Z" transform="translate(-16.97 -26.28)"/><path class="cls-27" d="M188.8,156.82a2.48,2.48,0,0,0,1.47,1.34,6.89,6.89,0,0,0,2.09.56,5.12,5.12,0,0,0,2.11-.14,1.8,1.8,0,0,0,1.31-1.19,3.88,3.88,0,0,0-.91-3.53,2.16,2.16,0,0,0-1.4-.71,4.51,4.51,0,0,0-1.72.19,4,4,0,0,0-1.45.71s0,0,0,0a.42.42,0,0,0,.11-.15,1.08,1.08,0,0,0,.14-.56,1.45,1.45,0,0,0-.06-.42,2.15,2.15,0,0,0-.18-.35,1.33,1.33,0,0,0-.32-.31c-.12-.07-.13-.07-.11-.07s.47,0,.79,0c1.35,0,2.87-.16,4.36-.23a66,66,0,0,1,9.11.07,28.15,28.15,0,0,1,9.16,2.14,8.07,8.07,0,0,1,3.82,3.28,6.88,6.88,0,0,1,.41,4.92,11.76,11.76,0,0,1-5.63,7.4,8.62,8.62,0,0,1-4.81.75,16.12,16.12,0,0,1-4.61-1.29,24,24,0,0,1-7.69-5.54,21.37,21.37,0,0,1-4.88-8.37,15.55,15.55,0,0,1-.67-5.06,17.27,17.27,0,0,1,1-5,18.7,18.7,0,0,1,2.25-4.49,14.41,14.41,0,0,1,3.68-3.76,14.17,14.17,0,0,1,1.27-.7,8.25,8.25,0,0,1,1.45-.5l.78-.16.83,0a3.73,3.73,0,0,1,.82.06,4.8,4.8,0,0,1,.79.16,8.82,8.82,0,0,1,4.7,3.23,7.77,7.77,0,0,1,1.31,2.62,5.79,5.79,0,0,1,0,3.17,6,6,0,0,1-1.51,2.53,10.66,10.66,0,0,1-2,1.62,43.83,43.83,0,0,1-8.53,3.62c-1.42.48-2.83,1-4.19,1.59a14.46,14.46,0,0,0-1.95,1C189.36,155.67,188.73,156.21,188.8,156.82Zm-.4.07a1.53,1.53,0,0,1,.4-1.2,4.6,4.6,0,0,1,.88-.78,17.83,17.83,0,0,1,1.95-1.19l4-2.07a34.4,34.4,0,0,0,7.35-4.72,5.3,5.3,0,0,0,1.86-2.85,3.44,3.44,0,0,0-1.05-2.55,5.4,5.4,0,0,0-2.66-1.66,1.87,1.87,0,0,0-.32,0,.76.76,0,0,0-.3,0l-.29,0-.31.08a4.28,4.28,0,0,0-.67.25c-.22.12-.45.26-.68.41a14,14,0,0,0-4.4,6.13,12.17,12.17,0,0,0-.58,7.62,19.88,19.88,0,0,0,3.67,7.28,23.29,23.29,0,0,0,6.24,5.67,13.35,13.35,0,0,0,3.87,1.57,9.37,9.37,0,0,0,2,.17,6.5,6.5,0,0,0,1.94-.48,9.36,9.36,0,0,0,4.95-6.45,5.19,5.19,0,0,0-.56-3.8,6,6,0,0,0-3.22-2.07,30.82,30.82,0,0,0-8.49-.86c-2.92,0-5.87.11-8.86.15-1.51,0-3,0-4.63-.13a7.38,7.38,0,0,1-1.44-.26,2.54,2.54,0,0,1-.63-.28,1.68,1.68,0,0,1-.53-.48,1.79,1.79,0,0,1-.34-1,2,2,0,0,1,.22-.83,2.66,2.66,0,0,1,.28-.38,3,3,0,0,1,.45-.39,5.07,5.07,0,0,1,1.39-.63,8.88,8.88,0,0,1,1.32-.28,6.55,6.55,0,0,1,2.73.23,4.25,4.25,0,0,1,2.27,1.75,5.76,5.76,0,0,1,.83,2.46,4.64,4.64,0,0,1-.38,2.53,2.87,2.87,0,0,1-2.07,1.5,6.66,6.66,0,0,1-2.36,0,8.71,8.71,0,0,1-2.2-.71A2.91,2.91,0,0,1,188.4,156.89Z" transform="translate(-16.97 -26.28)"/><path class="cls-28" d="M103.35,252.81c0,16.7,20.71,30.23,46.23,30.23s46.21-13.53,46.22-30.23Z" transform="translate(-16.97 -26.28)"/><path class="cls-29" d="M104,252.81h-.68c0,16.7,20.71,30.23,46.23,30.23,12.93,0,24.62-3.48,33-9.08-8.34,5.35-19.75,8.65-32.34,8.65C125,282.61,104.4,269.31,104,252.81Z" transform="translate(-16.97 -26.28)"/><path class="cls-30" d="M148.91,260.16c2.73-2.57,20-9.24,14.34-28.79-2.64-9.13-6.07-17.09-7.4-24.34a86.78,86.78,0,0,1-1.39-19c-4.33,5.66-11.76,10.84-17.63,17.62-5.38,6.22-8,14.29-5,23.43C138.31,248.6,148.28,257.26,148.91,260.16Z" transform="translate(-16.97 -26.28)"/><path class="cls-31" d="M149.53,258.49c1.72-1.71,13.86-6.05,10.93-18.85-2.88-12.35-13.89-21.17-15.17-29.21-3.89,7.09-8.89,15.3-5.52,27.71C143.22,250.89,149,256.58,149.53,258.49Z" transform="translate(-16.97 -26.28)"/><path class="cls-32" d="M149.48,258.61c1.17-1.16,9.35-3.87,8.78-12.65-.55-8.31-8.66-14.39-11.94-19.89-.37,5.17-2.94,10.5-2,18.87C145.22,253.7,149.14,257.33,149.48,258.61Z" transform="translate(-16.97 -26.28)"/></g><g id="Layer_4" data-name="Layer 4"><text class="cls-33" transform="translate(307.27 219.22)">      </text><text class="cls-34" transform="translate(284.33 155.71)"></text></g></g></g></svg>